<?xml version="1.0" standalone="no"?>
<!DOCTYPE svg PUBLIC "-//W3C//DTD SVG 20010904//EN"
 "http://www.w3.org/TR/2001/REC-SVG-20010904/DTD/svg10.dtd">
<svg version="1.0" xmlns="http://www.w3.org/2000/svg"
 width="700.000000pt" height="700.000000pt" viewBox="0 0 700.000000 700.000000"
 preserveAspectRatio="xMidYMid meet">
<metadata>
Created by potrace 1.11, written by Peter Selinger 2001-2013
</metadata>
<g transform="translate(0.000000,700.000000) scale(0.100000,-0.100000)"
fill="#000000" stroke="none">
<path d="M5408 6985 c-2 -1 -21 -5 -43 -8 -81 -12 -174 -59 -241 -123 -16 -16
-119 -114 -228 -219 -301 -287 -338 -323 -661 -644 -254 -252 -1028 -1037
-1206 -1222 -30 -31 -165 -170 -301 -310 -136 -140 -284 -292 -329 -339 -44
-47 -179 -186 -299 -310 -291 -300 -295 -306 -331 -377 -26 -53 -60 -186 -83
-328 -3 -16 -28 -145 -56 -285 -48 -238 -72 -341 -121 -515 -11 -38 -29 -101
-39 -140 -11 -38 -31 -110 -45 -160 -14 -49 -28 -125 -32 -167 -5 -66 -2 -87
17 -140 46 -129 133 -206 268 -238 65 -15 168 -4 417 44 11 2 40 7 65 11 25 4
54 9 65 11 59 11 135 24 170 29 22 4 48 8 57 11 9 3 65 13 125 24 89 15 354
65 453 84 14 3 73 14 132 25 200 38 259 63 372 161 35 30 680 672 1433 1425
754 754 1487 1485 1630 1625 142 140 273 273 290 295 75 95 120 236 111 344
-5 61 -92 239 -142 294 -38 40 -70 47 -85 19 -11 -21 -21 -114 -25 -245 -3
-81 -8 -106 -30 -151 -28 -56 -45 -74 -156 -153 -174 -126 -499 -374 -546
-418 -6 -5 -30 -26 -54 -45 -50 -40 -252 -211 -260 -220 -3 -3 -34 -30 -69
-60 -36 -30 -76 -66 -90 -79 -15 -13 -52 -46 -83 -74 -32 -28 -77 -69 -101
-91 -24 -23 -75 -70 -113 -105 -38 -35 -147 -138 -242 -229 -96 -91 -197 -188
-225 -215 -29 -27 -131 -125 -227 -217 -96 -92 -197 -189 -225 -215 -27 -27
-130 -125 -229 -219 -98 -94 -199 -191 -225 -216 -188 -179 -475 -454 -574
-550 -133 -129 -129 -126 -177 -134 -33 -5 -179 -33 -475 -92 -71 -14 -139
-28 -150 -30 -11 -2 -36 -7 -55 -10 -51 -9 -53 -10 -190 -38 -69 -14 -136 -27
-150 -30 -72 -14 -88 -18 -125 -26 -51 -12 -57 -12 -51 -1 3 5 8 26 12 47 3
22 9 55 14 74 5 19 12 53 16 75 3 22 16 87 29 145 13 58 26 119 29 135 2 17
27 140 55 275 55 269 55 267 78 393 l16 87 157 153 c86 83 226 219 311 301
428 413 980 957 1584 1561 591 591 790 792 1149 1164 l88 92 57 -6 c71 -7 134
-27 241 -78 181 -85 320 -190 555 -423 181 -180 229 -213 277 -195 62 24 79
152 38 285 -81 258 -259 479 -533 660 -134 88 -331 186 -407 202 -116 24 -274
46 -282 39z"/>
<path d="M472 5805 c-118 -26 -224 -86 -309 -176 -62 -65 -94 -117 -129 -210
l-29 -74 1 -770 c1 -707 7 -1368 19 -2155 7 -394 13 -806 20 -1305 5 -364 10
-513 18 -555 26 -124 75 -219 162 -305 109 -109 229 -159 410 -170 195 -11
266 -15 425 -20 91 -4 208 -8 260 -10 101 -4 449 -14 690 -20 680 -17 3046
-26 3205 -12 239 21 464 193 548 417 39 106 40 126 42 935 2 435 3 909 4 1055
1 274 1 282 -26 389 -29 118 -65 181 -105 181 -48 0 -99 -154 -159 -480 -6
-36 -13 -74 -14 -85 -2 -11 -8 -47 -14 -80 -19 -105 -51 -349 -66 -495 -7 -66
-17 -158 -20 -180 -2 -14 -7 -68 -10 -120 -4 -52 -9 -108 -11 -125 -9 -79 -28
-402 -39 -658 -6 -161 -20 -200 -87 -244 -41 -27 -45 -28 -182 -27 -129 1
-509 9 -941 19 -93 2 -298 7 -455 9 -157 3 -420 8 -585 11 -165 3 -403 8 -530
10 -389 7 -1211 17 -1605 19 -248 2 -382 6 -395 13 -56 31 -57 34 -62 290 -8
370 -8 1156 0 1493 10 454 19 1458 20 2210 0 587 2 668 16 693 8 15 24 30 35
33 11 4 115 8 230 9 826 11 1565 37 1761 61 22 3 60 7 85 10 37 5 107 18 200
39 8 2 40 13 71 24 218 82 95 221 -251 284 -181 34 -304 43 -650 52 -118 3
-291 8 -385 10 -445 13 -549 15 -815 19 -219 4 -300 2 -348 -9z"/>
</g>
</svg>
