<?xml version="1.0" encoding="UTF-8" standalone="no"?>
<!-- Generator: Adobe Illustrator 19.0.0, SVG Export Plug-In . SVG Version: 6.00 Build 0)  -->

<svg
   xmlns:dc="http://purl.org/dc/elements/1.1/"
   xmlns:cc="http://creativecommons.org/ns#"
   xmlns:rdf="http://www.w3.org/1999/02/22-rdf-syntax-ns#"
   xmlns:svg="http://www.w3.org/2000/svg"
   xmlns="http://www.w3.org/2000/svg"
   xmlns:xlink="http://www.w3.org/1999/xlink"
   xmlns:sodipodi="http://sodipodi.sourceforge.net/DTD/sodipodi-0.dtd"
   xmlns:inkscape="http://www.inkscape.org/namespaces/inkscape"
   version="1.1"
   id="Capa_1"
   x="0px"
   y="0px"
   viewBox="0 0 489.7 489.7"
   style="enable-background:new 0 0 489.7 489.7;"
   xml:space="preserve"
   sodipodi:docname="pp-icon-colored.svg"
   inkscape:export-filename="/home/user/DEV/permapaste/src/favicons/android-chrome-192x192.png"
   inkscape:export-xdpi="96"
   inkscape:export-ydpi="96"
   inkscape:version="0.92.3 (2405546, 2018-03-11)"><metadata
   id="metadata3839"><rdf:RDF><cc:Work
       rdf:about=""><dc:format>image/svg+xml</dc:format><dc:type
         rdf:resource="http://purl.org/dc/dcmitype/StillImage" /></cc:Work></rdf:RDF></metadata><defs
   id="defs3837"><linearGradient
     id="linearGradient4676"
     inkscape:collect="always"><stop
       id="stop4699"
       offset="0"
       style="stop-color:#decd87;stop-opacity:1;" /><stop
       id="stop4701"
       offset="1"
       style="stop-color:#ffffff;stop-opacity:1" /></linearGradient><linearGradient
     inkscape:collect="always"
     xlink:href="#linearGradient4676"
     id="linearGradient4704"
     gradientUnits="userSpaceOnUse"
     x1="15.896774"
     y1="288.55081"
     x2="398.17874"
     y2="288.55081" /></defs><sodipodi:namedview
   pagecolor="#ffffff"
   bordercolor="#666666"
   borderopacity="1"
   objecttolerance="10"
   gridtolerance="10"
   guidetolerance="10"
   inkscape:pageopacity="0"
   inkscape:pageshadow="2"
   inkscape:window-width="1373"
   inkscape:window-height="836"
   id="namedview3835"
   showgrid="false"
   inkscape:zoom="1"
   inkscape:cx="370.71475"
   inkscape:cy="200.68512"
   inkscape:window-x="67"
   inkscape:window-y="27"
   inkscape:window-maximized="1"
   inkscape:current-layer="Capa_1" />
<rect
   id="rect3841"
   width="382.28195"
   height="364.90549"
   x="15.896774"
   y="106.09806"
   style="fill:url(#linearGradient4704);fill-opacity:1;stroke-width:1.00702286" /><path
   transform="rotate(-44.4)"
   style="fill:#f9f9f9;fill-opacity:1"
   d="m -95.247042,290.36713 366.050262,-16.719 0,146.2732 -369.576535,0 c -50.017355,-48.63747 -105.525525,-80.53425 3.526273,-129.5542 z"
   id="rect4664"
   inkscape:connector-curvature="0"
   sodipodi:nodetypes="ccccc" /><g
   id="g3802">
	<g
   id="g3800">
		<path
   d="m 461.9,145.905 11.5,-11.3 2.9,-2.8 1.4,-1.4 c 0.6,-0.6 1.6,-1.6 2.4,-2.5 3.3,-3.7 6.4,-8.9 8,-14.1 0.9,-2.9 1.4,-6.1 1.5,-9.1 l 0.1,-3.8 c 0,-1 -0.2,-1.9 -0.6,-2.9 -1.1,-2.4 -2.6,-5.9 -4.4,-9.3 -1.8,-3.5 -4,-6.8 -5.6,-8.4 -0.5,-0.6 -1,-1.1 -1.5,-1.4 -0.4,-0.3 -0.8,-0.4 -1.1,-0.5 -0.7,-0.2 -12.4,-15.5 -12.9,-15.3 -1,0.6 -1,22.639033 -1.1,25.139033 0,0 9.3,5.260967 9.3,12.460967 v 1.5 0 c -0.9,3.1 -2.3,6.7 -4.3,9 -2,2.4 -4.5,4 -7.1,5.8 -5.2,3.6 -10.4,7.4 -15.6,11.4 -10.5,7.9 -21.1,16.3 -31.7,25.2 -21.3,17.7 -42.8,37.2 -63.8,57.4 -25.7,24.6 -51.3,49.1 -77,73.7 l -38.9,37.2 -9.6,9.3 -2.2,2.1 c 0,0 -0.2,0.1 -0.3,0.1 l -0.6,0.1 -25.4,4.9 c -17.5,3.5 -34.9,6.9 -52.4,10.4 l -8.4,1.7 c 3.4,-16.5 6.9,-33.1 10.3,-49.6 l 5.2,-26.3 1.3,-6.6 0.6,-3.3 0.1,-0.4 v -0.2 -0.1 c 0.1,-0.4 -0.1,0.5 -0.1,0.3 0,-0.2 0.2,-0.8 0.1,-0.4 -0.2,0.6 -0.1,0.3 -0.1,0.4 -0.1,0 0.2,-0.5 0.2,-0.6 v 0 0 l 0.3,-0.3 1.2,-1.2 2.3,-2.4 c 12.7,-12.3 25.5,-24.5 38.2,-36.8 40.1,-39.1 80.2,-78.4 119.7,-118.1 19.7,-19.9 39.3,-39.9 58.7,-60 l 7.3,-7.6 c 1.2,-1.3 1.9,-2 2.3,-2.4 h 0.3 c 3.4,0.3 6.2,0.6 8.4,1.1 1.1,0.2 2,0.4 2.7,0.7 h 0.1 c -0.2,-0.1 0.4,0.2 -0.3,-0.1 h 0.1 l 0.2,0.1 0.6,0.2 1.2,0.5 2.4,1 c 3,1.3 5.1,2.2 7.9,3.6 5.3,2.7 10.3,5.8 15.1,9.4 21.6,15.9 48.51202,46.883146 54.73234,43.947582 3.3,-2.6 4.75266,-17.964583 -6.34734,-33.364583 C 465.985,51.587999 452.7,38.905 438.7,27.005 c -6.2,-5.3 -13,-10 -20.1,-14 -1.8,-1 -3.8,-2 -5.6,-3 -2,-1.1 -3.4,-1.6 -5.2,-2.5 l -1.2,-0.6 -1,-0.5 -0.9,-0.4 c -1.2,-0.5 -2.4,-0.9 -3.6,-1.3 -2.4,-0.7 -4.6,-1.3 -6.8,-1.7 -2.1,-0.4 -4.2,-0.8 -6.1,-1.1 l -2.8,-0.4 -1.6,-0.2 c -0.9,-0.1 -1.8,-0.2 -2.7,-0.2 -3.6,-0.1 -7.6,0.5 -11.1,1.8 -3.5,1.3 -6.5,3.1 -8.8,5 -0.6,0.4 -1.2,1 -1.9,1.6 l -1.4,1.3 -2,1.9 -4,3.8 -8,7.6 c -21.2,20.3 -42.3,40.9 -63,61.7 -33.3,33.6 -66.2,67.3 -99.1,101.3 l -49.2,50.9 -3.2,3.3 c -1.8,1.9 -3.3,3.9 -4.6,6 -1.2,2.1 -2.3,4.3 -3.1,6.9 -1,3.4 -0.9,4.1 -1.3,5.7 l -3.4,17.4 -6.9,34.7 c -2.8,10.2 -5.7,20.4 -8.5,30.7 l -2.1,7.7 -1,3.9 -0.5,1.9 c -0.2,1 -0.6,2.7 -0.7,4.1 -0.6,5.9 1,13.5 6,19.2 2.4,2.8 5.6,5.1 8.9,6.5 3.3,1.4 6.7,2.1 10.1,2.2 1,0 2,0 3,-0.1 l 1.6,-0.2 0.5,-0.1 1.4,-0.2 1,-0.2 3.9,-0.7 7.9,-1.3 15.7,-2.7 31.5,-5.7 31.5,-6 7.9,-1.5 c 4.6,-0.9 10,-3 14.5,-6.1 1.1,-0.8 2.2,-1.6 3.1,-2.4 l 1.6,-1.4 0.9,-0.9 2.9,-2.8 5.7,-5.6 c 15.2,-15.1 30.5,-30.1 45.7,-45.2 30.3,-30.4 60.6,-60.9 90.9,-91.3 l 45.5,-45.5 z m -81.3,-111.1 v 0 c -0.3,0 -0.6,0 -0.7,-0.1 z M 121,353.305 c -0.5,0.1 0.1,0 0.4,-0.1 h 0.2 z"
   id="path3796"
   inkscape:connector-curvature="0"
   sodipodi:nodetypes="cccscccccccccccscccscccccccccccccccccccsccccccccccccccccccccccccccccccscccccccccscccccccccccccccccccccscccccccccccccccccccccccccccccc" />
		<path
   d="m 400.9,208.16016 c -4.9,-7.7 -11.36952,19.67645 -14.46952,34.67645 -5.2,24.7 -6.53048,108.86839 -9.03048,137.66839 -1.3,14.4 -2.3,29.2 -3,44.1 -0.2,3.7 -0.3,7.5 -0.5,11.3 l -0.2,5.7 v 0.7 0.4 -0.6 0 0.1 0.2 l -0.1,1.4 c -0.1,1.3 -0.2,1 -0.3,1.3 -0.8,3.3 -3.4,6.5 -6.5,8.1 -2,1 -3.8,1.4 -6.4,1.3 l -13.8,-0.3 -27.5,-0.6 -55.1,-1.2 c -36.7,-0.7 -73.5,-1.3 -110.2,-2 -36.8,-0.5 -73.6,-0.9 -110.4,-0.9 H 43 42.6 l -1.7,-0.1 c -0.1,-0.2 0.5,0 0,-0.1 -0.6,-0.1 -1.1,-0.4 -1.7,-0.6 -1,-0.6 -2.1,-1.5 -2.7,-2.5 -0.7,-1 -1,-2.2 -1.1,-3.5 l -0.2,-13.8 c -0.2,-18.4 -0.5,-36.9 -0.9,-55.4 0.4,-18.3 0.7,-36.5 1.1,-54.8 0.8,-58 1.4,-115.9 1.2,-173.8 l -0.1,-20.7 c 0,-2 0.7,-3.3 2,-4.6 0.6,-0.6 1.4,-1 2.2,-1.3 0.4,-0.1 0.8,-0.2 1.3,-0.3 h 0.3 1.1 2.7 l 21.7,-0.3 c 28.9,-0.5 57.8,-1.2 86.6,-2.3 32.8,-1.2 108.18017,3.67806 111.30904,-13.22032 C 265.08871,85.196451 186.5,86.205 152.9,85.305 c -30.2,-0.8 -60.6,-1.6 -91,-2.4 l -11.4,-0.2 -5.7,-0.1 c -1.1,0 -1.7,-0.1 -3.1,0 -1.5,0.1 -3.1,0.1 -4.6,0.3 -12.3,1.4 -23.8,8.5 -30.5,18.9 -1.7,2.6 -3.1,5.4 -4.1,8.3 -1.1,3 -1.8,5.7 -2.3,9.7 l -0.1,1.3 v 0.7 l -0.1,1.4 v 1.5 0.7 1.4 5.7 22.8 c 0.2,48.8 0.8,97.6 1.5,146.4 l 1.1,73.2 0.6,36.6 0.3,18.3 0.1,9.1 v 2.3 c 0,0.8 0,1.3 0.1,2.6 0.1,2.3 0.4,4.5 0.8,6.8 1.3,8.1 5.3,15.9 11.3,21.7 3,2.9 6.5,5.5 10.3,7.3 3.9,1.8 7.6,3.1 13,3.8 l 2,0.2 0.5,0.1 h 1.3 l 1,0.1 4.1,0.2 8.2,0.4 16.5,0.7 c 22,0.9 44,1.6 66,2.1 44.1,1 88.4,1.4 132.7,1.4 22.2,0 44.4,-0.1 66.5,-0.1 l 16.6,-0.1 h 4.2 2.3 l 3.6,-0.2 c 4.9,-0.5 9.7,-1.7 14.2,-3.6 9,-4 16.6,-10.8 21.4,-19.3 2.4,-4.3 4.1,-8.8 5.1,-13.7 0.3,-1.5 0.5,-2.9 0.6,-4.4 0.1,-0.9 0.1,-1.1 0.1,-1.5 v -1 l 0.1,-2 v -1 -2.1 c -0.1,-44.4 -0.1,-88.7 0.5,-132.9 0.3,-8 -3.2,-94.64484 -5.7,-98.54484 z"
   id="path3798"
   inkscape:connector-curvature="0"
   sodipodi:nodetypes="ccccccccccccccccccccsccccccccccccsccccccccccccccccccccccccccccccsccsccccccccccscccccccccscccccc" />
	</g>
</g>
<g
   id="g3804">
</g>
<g
   id="g3806">
</g>
<g
   id="g3808">
</g>
<g
   id="g3810">
</g>
<g
   id="g3812">
</g>
<g
   id="g3814">
</g>
<g
   id="g3816">
</g>
<g
   id="g3818">
</g>
<g
   id="g3820">
</g>
<g
   id="g3822">
</g>
<g
   id="g3824">
</g>
<g
   id="g3826">
</g>
<g
   id="g3828">
</g>
<g
   id="g3830">
</g>
<g
   id="g3832">
</g>
</svg>